<mxfile host="app.diagrams.net" modified="2022-06-27T20:44:01.119Z" agent="5.0 (Windows NT 10.0; Win64; x64) AppleWebKit/537.36 (KHTML, like Gecko) Chrome/102.0.0.0 Safari/537.36" etag="3TQXTtme-0p-cMeowlDA" version="17.5.0" type="github">
  <diagram name="Page-1" id="2c0d36ab-eaac-3732-788b-9136903baeff">
    <mxGraphModel dx="935" dy="1121" grid="1" gridSize="10" guides="1" tooltips="1" connect="1" arrows="1" fold="1" page="1" pageScale="1.5" pageWidth="1169" pageHeight="827" background="none" math="0" shadow="0">
      <root>
        <mxCell id="0" />
        <mxCell id="1" parent="0" />
        <mxCell id="123" value="" style="fillColor=#AE4132;strokeColor=none;opacity=30;" parent="1" vertex="1">
          <mxGeometry x="747" y="175.50000000000003" width="210" height="99.99999999999994" as="geometry" />
        </mxCell>
        <mxCell id="2" value="Root.HomingPigeon" style="rounded=1;fillColor=#23445D;gradientColor=none;strokeColor=none;fontColor=#FFFFFF;fontStyle=1;fontFamily=Tahoma;fontSize=14" parent="1" vertex="1">
          <mxGeometry x="757" y="185.5" width="190" height="80" as="geometry" />
        </mxCell>
        <mxCell id="59" value="" style="edgeStyle=elbowEdgeStyle;elbow=vertical;strokeWidth=2;rounded=0" parent="1" source="2" edge="1">
          <mxGeometry x="347" y="225.5" width="100" height="100" as="geometry">
            <mxPoint x="861.9999999999999" y="275.5" as="sourcePoint" />
            <mxPoint x="852" y="350" as="targetPoint" />
            <Array as="points">
              <mxPoint x="852" y="320" />
            </Array>
          </mxGeometry>
        </mxCell>
        <mxCell id="5u3Gv7ZHj8zNrGdocdJT-125" value="" style="edgeStyle=orthogonalEdgeStyle;rounded=0;orthogonalLoop=1;jettySize=auto;html=1;" edge="1" parent="1" source="5u3Gv7ZHj8zNrGdocdJT-123" target="5u3Gv7ZHj8zNrGdocdJT-124">
          <mxGeometry relative="1" as="geometry">
            <Array as="points">
              <mxPoint x="1020" y="400" />
              <mxPoint x="1020" y="510" />
            </Array>
          </mxGeometry>
        </mxCell>
        <mxCell id="5u3Gv7ZHj8zNrGdocdJT-127" value="" style="edgeStyle=orthogonalEdgeStyle;rounded=0;orthogonalLoop=1;jettySize=auto;html=1;" edge="1" parent="1" source="5u3Gv7ZHj8zNrGdocdJT-123" target="5u3Gv7ZHj8zNrGdocdJT-126">
          <mxGeometry relative="1" as="geometry" />
        </mxCell>
        <mxCell id="5u3Gv7ZHj8zNrGdocdJT-129" value="" style="edgeStyle=orthogonalEdgeStyle;rounded=0;orthogonalLoop=1;jettySize=auto;html=1;" edge="1" parent="1" source="5u3Gv7ZHj8zNrGdocdJT-123" target="5u3Gv7ZHj8zNrGdocdJT-128">
          <mxGeometry relative="1" as="geometry" />
        </mxCell>
        <mxCell id="5u3Gv7ZHj8zNrGdocdJT-131" value="" style="edgeStyle=orthogonalEdgeStyle;rounded=0;orthogonalLoop=1;jettySize=auto;html=1;" edge="1" parent="1" source="5u3Gv7ZHj8zNrGdocdJT-123" target="5u3Gv7ZHj8zNrGdocdJT-130">
          <mxGeometry relative="1" as="geometry" />
        </mxCell>
        <mxCell id="5u3Gv7ZHj8zNrGdocdJT-135" value="" style="edgeStyle=orthogonalEdgeStyle;rounded=0;orthogonalLoop=1;jettySize=auto;html=1;" edge="1" parent="1" source="5u3Gv7ZHj8zNrGdocdJT-123" target="5u3Gv7ZHj8zNrGdocdJT-134">
          <mxGeometry relative="1" as="geometry" />
        </mxCell>
        <mxCell id="5u3Gv7ZHj8zNrGdocdJT-137" value="" style="edgeStyle=orthogonalEdgeStyle;rounded=0;orthogonalLoop=1;jettySize=auto;html=1;" edge="1" parent="1" source="5u3Gv7ZHj8zNrGdocdJT-123" target="5u3Gv7ZHj8zNrGdocdJT-136">
          <mxGeometry relative="1" as="geometry" />
        </mxCell>
        <mxCell id="5u3Gv7ZHj8zNrGdocdJT-139" value="" style="edgeStyle=orthogonalEdgeStyle;rounded=0;orthogonalLoop=1;jettySize=auto;html=1;" edge="1" parent="1" source="5u3Gv7ZHj8zNrGdocdJT-123" target="5u3Gv7ZHj8zNrGdocdJT-138">
          <mxGeometry relative="1" as="geometry" />
        </mxCell>
        <mxCell id="5u3Gv7ZHj8zNrGdocdJT-141" value="" style="edgeStyle=orthogonalEdgeStyle;rounded=0;orthogonalLoop=1;jettySize=auto;html=1;" edge="1" parent="1" source="5u3Gv7ZHj8zNrGdocdJT-123" target="5u3Gv7ZHj8zNrGdocdJT-140">
          <mxGeometry relative="1" as="geometry" />
        </mxCell>
        <mxCell id="5u3Gv7ZHj8zNrGdocdJT-123" value="Main Page" style="shape=note;whiteSpace=wrap;html=1;backgroundOutline=1;darkOpacity=0.05;" vertex="1" parent="1">
          <mxGeometry x="812" y="350" width="80" height="100" as="geometry" />
        </mxCell>
        <mxCell id="5u3Gv7ZHj8zNrGdocdJT-124" value="Log-In Page" style="shape=note;whiteSpace=wrap;html=1;backgroundOutline=1;darkOpacity=0.05;fillColor=#e1d5e7;strokeColor=#9673a6;" vertex="1" parent="1">
          <mxGeometry x="1160" y="460" width="80" height="100" as="geometry" />
        </mxCell>
        <mxCell id="5u3Gv7ZHj8zNrGdocdJT-126" value="Sign-Up Page" style="shape=note;whiteSpace=wrap;html=1;backgroundOutline=1;darkOpacity=0.05;fillColor=#e1d5e7;strokeColor=#9673a6;" vertex="1" parent="1">
          <mxGeometry x="1160" y="350" width="80" height="100" as="geometry" />
        </mxCell>
        <mxCell id="5u3Gv7ZHj8zNrGdocdJT-128" value="Postcard Page" style="shape=note;whiteSpace=wrap;html=1;backgroundOutline=1;darkOpacity=0.05;fillColor=#dae8fc;strokeColor=#6c8ebf;" vertex="1" parent="1">
          <mxGeometry x="730" y="600" width="80" height="100" as="geometry" />
        </mxCell>
        <mxCell id="5u3Gv7ZHj8zNrGdocdJT-133" value="" style="edgeStyle=orthogonalEdgeStyle;rounded=0;orthogonalLoop=1;jettySize=auto;html=1;" edge="1" parent="1" source="5u3Gv7ZHj8zNrGdocdJT-130" target="5u3Gv7ZHj8zNrGdocdJT-132">
          <mxGeometry relative="1" as="geometry" />
        </mxCell>
        <mxCell id="5u3Gv7ZHj8zNrGdocdJT-130" value="Check-Out Page" style="shape=note;whiteSpace=wrap;html=1;backgroundOutline=1;darkOpacity=0.05;fillColor=#dae8fc;strokeColor=#6c8ebf;" vertex="1" parent="1">
          <mxGeometry x="620" y="600" width="80" height="100" as="geometry" />
        </mxCell>
        <mxCell id="5u3Gv7ZHj8zNrGdocdJT-132" value="Success Page" style="shape=note;whiteSpace=wrap;html=1;backgroundOutline=1;darkOpacity=0.05;fillColor=#dae8fc;strokeColor=#6c8ebf;" vertex="1" parent="1">
          <mxGeometry x="620" y="740" width="80" height="100" as="geometry" />
        </mxCell>
        <mxCell id="5u3Gv7ZHj8zNrGdocdJT-134" value="Admin Account Page" style="shape=note;whiteSpace=wrap;html=1;backgroundOutline=1;darkOpacity=0.05;fillColor=#f8cecc;strokeColor=#b85450;" vertex="1" parent="1">
          <mxGeometry x="430" y="830" width="80" height="100" as="geometry" />
        </mxCell>
        <mxCell id="5u3Gv7ZHj8zNrGdocdJT-136" value="Admin Postcard Page" style="shape=note;whiteSpace=wrap;html=1;backgroundOutline=1;darkOpacity=0.05;fillColor=#f8cecc;strokeColor=#b85450;" vertex="1" parent="1">
          <mxGeometry x="320" y="830" width="80" height="100" as="geometry" />
        </mxCell>
        <mxCell id="5u3Gv7ZHj8zNrGdocdJT-138" value="Profile Page" style="shape=note;whiteSpace=wrap;html=1;backgroundOutline=1;darkOpacity=0.05;fillColor=#e1d5e7;strokeColor=#9673a6;" vertex="1" parent="1">
          <mxGeometry x="940" y="530" width="80" height="100" as="geometry" />
        </mxCell>
        <mxCell id="5u3Gv7ZHj8zNrGdocdJT-140" value="Favourite Page" style="shape=note;whiteSpace=wrap;html=1;backgroundOutline=1;darkOpacity=0.05;fillColor=#dae8fc;strokeColor=#6c8ebf;" vertex="1" parent="1">
          <mxGeometry x="510" y="600" width="80" height="100" as="geometry" />
        </mxCell>
        <mxCell id="5u3Gv7ZHj8zNrGdocdJT-142" value="&lt;div&gt;&lt;span&gt;White:&amp;nbsp; Accessible for all&lt;/span&gt;&lt;/div&gt;&lt;div style=&quot;text-align: center&quot;&gt;&lt;span style=&quot;background-color: rgb(205 , 162 , 190)&quot;&gt;Purple: Accessible for customer and admin&lt;/span&gt;&lt;/div&gt;&lt;div&gt;&lt;span style=&quot;background-color: rgb(169 , 196 , 235)&quot;&gt;Blue:&amp;nbsp; &amp;nbsp; Accessible for customer only&lt;/span&gt;&lt;/div&gt;&lt;div&gt;&lt;span style=&quot;background-color: rgb(255 , 51 , 51)&quot;&gt;Red:&amp;nbsp; &amp;nbsp; &amp;nbsp;Accessible for admin only&lt;/span&gt;&lt;/div&gt;" style="rounded=0;whiteSpace=wrap;html=1;align=left;" vertex="1" parent="1">
          <mxGeometry x="957" y="740" width="233" height="80" as="geometry" />
        </mxCell>
      </root>
    </mxGraphModel>
  </diagram>
</mxfile>
